<mxfile host="app.diagrams.net" modified="2022-10-13T10:24:58.104Z" agent="5.0 (Windows NT 10.0; Win64; x64) AppleWebKit/537.36 (KHTML, like Gecko) Chrome/106.0.0.0 Safari/537.36 Edg/106.0.1370.42" etag="o8BAI_BYr5U0k1zvUDF7" version="20.4.0" type="github">
  <diagram id="YIg-twoA3lVmyOpFWbwZ" name="Page-1">
    <mxGraphModel dx="934" dy="495" grid="1" gridSize="10" guides="1" tooltips="1" connect="1" arrows="1" fold="1" page="1" pageScale="1" pageWidth="850" pageHeight="1100" math="1" shadow="0">
      <root>
        <mxCell id="0" />
        <mxCell id="1" parent="0" />
        <mxCell id="ZmWr9eJU89eHi5DbGtIF-5" value="" style="endArrow=none;html=1;rounded=0;opacity=80;" edge="1" parent="1">
          <mxGeometry width="50" height="50" relative="1" as="geometry">
            <mxPoint x="280" y="140" as="sourcePoint" />
            <mxPoint x="280" y="440" as="targetPoint" />
          </mxGeometry>
        </mxCell>
        <mxCell id="ZmWr9eJU89eHi5DbGtIF-11" value="&lt;font style=&quot;font-size: 14px;&quot;&gt;0&lt;/font&gt;" style="text;html=1;strokeColor=none;fillColor=none;align=center;verticalAlign=middle;whiteSpace=wrap;rounded=0;fontSize=13;" vertex="1" parent="1">
          <mxGeometry x="80" y="441" width="60" height="30" as="geometry" />
        </mxCell>
        <mxCell id="ZmWr9eJU89eHi5DbGtIF-12" value="&lt;font style=&quot;font-size: 14px;&quot;&gt;V [m/s]&lt;/font&gt;" style="text;html=1;strokeColor=none;fillColor=none;align=center;verticalAlign=middle;whiteSpace=wrap;rounded=0;fontSize=13;" vertex="1" parent="1">
          <mxGeometry x="720" y="430" width="60" height="30" as="geometry" />
        </mxCell>
        <mxCell id="ZmWr9eJU89eHi5DbGtIF-13" value="&lt;span style=&quot;font-size: 14px;&quot;&gt;V cut-in&lt;/span&gt;" style="text;html=1;strokeColor=none;fillColor=none;align=center;verticalAlign=middle;whiteSpace=wrap;rounded=0;fontSize=13;" vertex="1" parent="1">
          <mxGeometry x="140" y="441" width="60" height="30" as="geometry" />
        </mxCell>
        <mxCell id="ZmWr9eJU89eHi5DbGtIF-21" value="" style="endArrow=none;html=1;rounded=0;fontSize=14;strokeWidth=2;fillColor=#f8cecc;strokeColor=#b85450;" edge="1" parent="1">
          <mxGeometry width="50" height="50" relative="1" as="geometry">
            <mxPoint x="280" y="360" as="sourcePoint" />
            <mxPoint x="160" y="360" as="targetPoint" />
          </mxGeometry>
        </mxCell>
        <mxCell id="ZmWr9eJU89eHi5DbGtIF-22" value="" style="endArrow=none;html=1;rounded=0;fontSize=14;strokeWidth=2;fillColor=#f8cecc;strokeColor=#b85450;" edge="1" parent="1">
          <mxGeometry width="50" height="50" relative="1" as="geometry">
            <mxPoint x="280" y="360" as="sourcePoint" />
            <mxPoint x="400" y="240" as="targetPoint" />
          </mxGeometry>
        </mxCell>
        <mxCell id="ZmWr9eJU89eHi5DbGtIF-23" value="" style="endArrow=none;html=1;rounded=0;fontSize=14;strokeWidth=2;fillColor=#f8cecc;strokeColor=#b85450;" edge="1" parent="1">
          <mxGeometry width="50" height="50" relative="1" as="geometry">
            <mxPoint x="400" y="240" as="sourcePoint" />
            <mxPoint x="680" y="240" as="targetPoint" />
          </mxGeometry>
        </mxCell>
        <mxCell id="ZmWr9eJU89eHi5DbGtIF-24" value="" style="curved=1;endArrow=none;html=1;rounded=0;strokeWidth=2;fontSize=14;endFill=0;" edge="1" parent="1">
          <mxGeometry width="50" height="50" relative="1" as="geometry">
            <mxPoint x="280" y="400" as="sourcePoint" />
            <mxPoint x="160" y="320" as="targetPoint" />
            <Array as="points">
              <mxPoint x="260" y="370" />
              <mxPoint x="200" y="330" />
            </Array>
          </mxGeometry>
        </mxCell>
        <mxCell id="ZmWr9eJU89eHi5DbGtIF-26" value="" style="curved=1;endArrow=none;html=1;rounded=0;strokeWidth=2;fontSize=14;endFill=0;fillColor=#dae8fc;strokeColor=#6c8ebf;" edge="1" parent="1">
          <mxGeometry width="50" height="50" relative="1" as="geometry">
            <mxPoint x="520" y="420" as="sourcePoint" />
            <mxPoint x="400" y="400" as="targetPoint" />
            <Array as="points">
              <mxPoint x="480" y="420" />
            </Array>
          </mxGeometry>
        </mxCell>
        <mxCell id="ZmWr9eJU89eHi5DbGtIF-27" value="" style="curved=1;endArrow=none;html=1;rounded=0;strokeWidth=2;fontSize=14;endFill=0;fillColor=#dae8fc;strokeColor=#6c8ebf;" edge="1" parent="1">
          <mxGeometry width="50" height="50" relative="1" as="geometry">
            <mxPoint x="680" y="320" as="sourcePoint" />
            <mxPoint x="520" y="420" as="targetPoint" />
            <Array as="points">
              <mxPoint x="580" y="320" />
            </Array>
          </mxGeometry>
        </mxCell>
        <mxCell id="ZmWr9eJU89eHi5DbGtIF-2" value="" style="endArrow=classic;html=1;rounded=0;" edge="1" parent="1">
          <mxGeometry width="50" height="50" relative="1" as="geometry">
            <mxPoint x="120" y="440" as="sourcePoint" />
            <mxPoint x="120" y="120" as="targetPoint" />
          </mxGeometry>
        </mxCell>
        <mxCell id="ZmWr9eJU89eHi5DbGtIF-3" value="" style="endArrow=classic;html=1;rounded=0;" edge="1" parent="1">
          <mxGeometry width="50" height="50" relative="1" as="geometry">
            <mxPoint x="120" y="440" as="sourcePoint" />
            <mxPoint x="720" y="440" as="targetPoint" />
          </mxGeometry>
        </mxCell>
        <mxCell id="ZmWr9eJU89eHi5DbGtIF-6" value="" style="endArrow=none;html=1;rounded=0;opacity=80;" edge="1" parent="1">
          <mxGeometry width="50" height="50" relative="1" as="geometry">
            <mxPoint x="400" y="137.77777777777777" as="sourcePoint" />
            <mxPoint x="400" y="440" as="targetPoint" />
          </mxGeometry>
        </mxCell>
        <mxCell id="ZmWr9eJU89eHi5DbGtIF-7" value="" style="endArrow=none;html=1;rounded=0;opacity=80;" edge="1" parent="1">
          <mxGeometry width="50" height="50" relative="1" as="geometry">
            <mxPoint x="520" y="137.77777777777777" as="sourcePoint" />
            <mxPoint x="520" y="440" as="targetPoint" />
          </mxGeometry>
        </mxCell>
        <mxCell id="ZmWr9eJU89eHi5DbGtIF-8" value="" style="endArrow=none;html=1;rounded=0;opacity=80;" edge="1" parent="1">
          <mxGeometry width="50" height="50" relative="1" as="geometry">
            <mxPoint x="680" y="137.77777777777777" as="sourcePoint" />
            <mxPoint x="680" y="440" as="targetPoint" />
          </mxGeometry>
        </mxCell>
        <mxCell id="ZmWr9eJU89eHi5DbGtIF-19" value="" style="endArrow=none;html=1;rounded=0;opacity=80;" edge="1" parent="1">
          <mxGeometry width="50" height="50" relative="1" as="geometry">
            <mxPoint x="160" y="139.9999999999999" as="sourcePoint" />
            <mxPoint x="160" y="440" as="targetPoint" />
          </mxGeometry>
        </mxCell>
        <mxCell id="ZmWr9eJU89eHi5DbGtIF-25" value="" style="endArrow=none;html=1;rounded=0;fontSize=14;strokeWidth=2;fillColor=#f8cecc;strokeColor=#b85450;" edge="1" parent="1">
          <mxGeometry width="50" height="50" relative="1" as="geometry">
            <mxPoint x="400" y="399.9999999999999" as="sourcePoint" />
            <mxPoint x="280" y="399.9999999999999" as="targetPoint" />
          </mxGeometry>
        </mxCell>
        <mxCell id="ZmWr9eJU89eHi5DbGtIF-28" value="" style="endArrow=none;html=1;rounded=0;fontSize=14;strokeWidth=2;fillColor=#dae8fc;strokeColor=#6c8ebf;" edge="1" parent="1">
          <mxGeometry width="50" height="50" relative="1" as="geometry">
            <mxPoint x="400" y="399.9999999999999" as="sourcePoint" />
            <mxPoint x="280" y="399.9999999999999" as="targetPoint" />
          </mxGeometry>
        </mxCell>
        <mxCell id="ZmWr9eJU89eHi5DbGtIF-29" value="" style="curved=1;endArrow=none;html=1;rounded=0;strokeWidth=2;fontSize=14;endFill=0;fillColor=#dae8fc;strokeColor=#6c8ebf;" edge="1" parent="1">
          <mxGeometry width="50" height="50" relative="1" as="geometry">
            <mxPoint x="280" y="399.9999999999999" as="sourcePoint" />
            <mxPoint x="160" y="319.9999999999999" as="targetPoint" />
            <Array as="points">
              <mxPoint x="260" y="370" />
              <mxPoint x="200" y="330" />
            </Array>
          </mxGeometry>
        </mxCell>
        <mxCell id="ZmWr9eJU89eHi5DbGtIF-30" value="" style="curved=1;endArrow=none;html=1;rounded=0;strokeWidth=2;fontSize=14;endFill=0;fillColor=#d5e8d4;strokeColor=#82b366;" edge="1" parent="1">
          <mxGeometry width="50" height="50" relative="1" as="geometry">
            <mxPoint x="400" y="300" as="sourcePoint" />
            <mxPoint x="160" y="400" as="targetPoint" />
            <Array as="points">
              <mxPoint x="370" y="360" />
              <mxPoint x="260" y="400" />
            </Array>
          </mxGeometry>
        </mxCell>
        <mxCell id="ZmWr9eJU89eHi5DbGtIF-31" value="" style="endArrow=none;html=1;rounded=0;fontSize=14;strokeWidth=2;fillColor=#d5e8d4;strokeColor=#82b366;" edge="1" parent="1">
          <mxGeometry width="50" height="50" relative="1" as="geometry">
            <mxPoint x="400" y="300" as="sourcePoint" />
            <mxPoint x="520" y="200" as="targetPoint" />
          </mxGeometry>
        </mxCell>
        <mxCell id="ZmWr9eJU89eHi5DbGtIF-32" value="" style="endArrow=none;html=1;rounded=0;fontSize=14;strokeWidth=2;fillColor=#d5e8d4;strokeColor=#82b366;" edge="1" parent="1">
          <mxGeometry width="50" height="50" relative="1" as="geometry">
            <mxPoint x="680" y="200" as="sourcePoint" />
            <mxPoint x="520" y="200" as="targetPoint" />
          </mxGeometry>
        </mxCell>
        <mxCell id="ZmWr9eJU89eHi5DbGtIF-33" value="" style="endArrow=none;html=1;rounded=0;strokeWidth=1;fontSize=14;opacity=70;" edge="1" parent="1">
          <mxGeometry width="50" height="50" relative="1" as="geometry">
            <mxPoint x="130" y="180" as="sourcePoint" />
            <mxPoint x="150" y="160" as="targetPoint" />
          </mxGeometry>
        </mxCell>
        <mxCell id="ZmWr9eJU89eHi5DbGtIF-34" value="" style="endArrow=none;html=1;rounded=0;strokeWidth=1;fontSize=14;opacity=70;" edge="1" parent="1">
          <mxGeometry width="50" height="50" relative="1" as="geometry">
            <mxPoint x="130" y="200" as="sourcePoint" />
            <mxPoint x="150" y="180" as="targetPoint" />
          </mxGeometry>
        </mxCell>
        <mxCell id="ZmWr9eJU89eHi5DbGtIF-35" value="" style="endArrow=none;html=1;rounded=0;strokeWidth=1;fontSize=14;opacity=70;" edge="1" parent="1">
          <mxGeometry width="50" height="50" relative="1" as="geometry">
            <mxPoint x="130" y="220" as="sourcePoint" />
            <mxPoint x="150" y="200" as="targetPoint" />
          </mxGeometry>
        </mxCell>
        <mxCell id="ZmWr9eJU89eHi5DbGtIF-36" value="" style="endArrow=none;html=1;rounded=0;strokeWidth=1;fontSize=14;opacity=70;" edge="1" parent="1">
          <mxGeometry width="50" height="50" relative="1" as="geometry">
            <mxPoint x="130" y="240" as="sourcePoint" />
            <mxPoint x="150" y="220" as="targetPoint" />
          </mxGeometry>
        </mxCell>
        <mxCell id="ZmWr9eJU89eHi5DbGtIF-37" value="" style="endArrow=none;html=1;rounded=0;strokeWidth=1;fontSize=14;opacity=70;" edge="1" parent="1">
          <mxGeometry width="50" height="50" relative="1" as="geometry">
            <mxPoint x="130" y="260" as="sourcePoint" />
            <mxPoint x="150" y="240" as="targetPoint" />
          </mxGeometry>
        </mxCell>
        <mxCell id="ZmWr9eJU89eHi5DbGtIF-38" value="" style="endArrow=none;html=1;rounded=0;strokeWidth=1;fontSize=14;opacity=70;" edge="1" parent="1">
          <mxGeometry width="50" height="50" relative="1" as="geometry">
            <mxPoint x="130" y="280" as="sourcePoint" />
            <mxPoint x="150" y="260" as="targetPoint" />
          </mxGeometry>
        </mxCell>
        <mxCell id="ZmWr9eJU89eHi5DbGtIF-39" value="" style="endArrow=none;html=1;rounded=0;strokeWidth=1;fontSize=14;opacity=70;" edge="1" parent="1">
          <mxGeometry width="50" height="50" relative="1" as="geometry">
            <mxPoint x="130" y="300" as="sourcePoint" />
            <mxPoint x="150" y="280" as="targetPoint" />
          </mxGeometry>
        </mxCell>
        <mxCell id="ZmWr9eJU89eHi5DbGtIF-40" value="" style="endArrow=none;html=1;rounded=0;strokeWidth=1;fontSize=14;opacity=70;" edge="1" parent="1">
          <mxGeometry width="50" height="50" relative="1" as="geometry">
            <mxPoint x="130" y="320" as="sourcePoint" />
            <mxPoint x="150" y="300" as="targetPoint" />
          </mxGeometry>
        </mxCell>
        <mxCell id="ZmWr9eJU89eHi5DbGtIF-41" value="" style="endArrow=none;html=1;rounded=0;strokeWidth=1;fontSize=14;opacity=70;" edge="1" parent="1">
          <mxGeometry width="50" height="50" relative="1" as="geometry">
            <mxPoint x="130" y="340" as="sourcePoint" />
            <mxPoint x="150" y="320" as="targetPoint" />
          </mxGeometry>
        </mxCell>
        <mxCell id="ZmWr9eJU89eHi5DbGtIF-42" value="" style="endArrow=none;html=1;rounded=0;strokeWidth=1;fontSize=14;opacity=70;" edge="1" parent="1">
          <mxGeometry width="50" height="50" relative="1" as="geometry">
            <mxPoint x="130" y="360" as="sourcePoint" />
            <mxPoint x="150" y="340" as="targetPoint" />
          </mxGeometry>
        </mxCell>
        <mxCell id="ZmWr9eJU89eHi5DbGtIF-43" value="" style="endArrow=none;html=1;rounded=0;strokeWidth=1;fontSize=14;opacity=70;" edge="1" parent="1">
          <mxGeometry width="50" height="50" relative="1" as="geometry">
            <mxPoint x="130" y="380" as="sourcePoint" />
            <mxPoint x="150" y="360" as="targetPoint" />
          </mxGeometry>
        </mxCell>
        <mxCell id="ZmWr9eJU89eHi5DbGtIF-44" value="" style="endArrow=none;html=1;rounded=0;strokeWidth=1;fontSize=14;opacity=70;" edge="1" parent="1">
          <mxGeometry width="50" height="50" relative="1" as="geometry">
            <mxPoint x="130" y="400" as="sourcePoint" />
            <mxPoint x="150" y="380" as="targetPoint" />
          </mxGeometry>
        </mxCell>
        <mxCell id="ZmWr9eJU89eHi5DbGtIF-45" value="" style="endArrow=none;html=1;rounded=0;strokeWidth=1;fontSize=14;opacity=70;" edge="1" parent="1">
          <mxGeometry width="50" height="50" relative="1" as="geometry">
            <mxPoint x="130" y="420" as="sourcePoint" />
            <mxPoint x="150" y="400" as="targetPoint" />
          </mxGeometry>
        </mxCell>
        <mxCell id="ZmWr9eJU89eHi5DbGtIF-46" value="" style="endArrow=none;html=1;rounded=0;strokeWidth=1;fontSize=14;opacity=70;" edge="1" parent="1">
          <mxGeometry width="50" height="50" relative="1" as="geometry">
            <mxPoint x="140" y="430" as="sourcePoint" />
            <mxPoint x="150" y="420" as="targetPoint" />
          </mxGeometry>
        </mxCell>
        <mxCell id="ZmWr9eJU89eHi5DbGtIF-47" value="" style="endArrow=none;html=1;rounded=0;strokeWidth=1;fontSize=14;opacity=70;" edge="1" parent="1">
          <mxGeometry width="50" height="50" relative="1" as="geometry">
            <mxPoint x="130" y="160" as="sourcePoint" />
            <mxPoint x="140" y="150" as="targetPoint" />
          </mxGeometry>
        </mxCell>
        <mxCell id="ZmWr9eJU89eHi5DbGtIF-48" value="$$\theta_{ref}$$" style="text;html=1;strokeColor=#6c8ebf;fillColor=#dae8fc;align=center;verticalAlign=middle;whiteSpace=wrap;rounded=0;fontSize=14;" vertex="1" parent="1">
          <mxGeometry x="50" y="300" width="60" height="30" as="geometry" />
        </mxCell>
        <mxCell id="ZmWr9eJU89eHi5DbGtIF-49" value="$$\omega_{ref}$$" style="text;html=1;strokeColor=#b85450;fillColor=#f8cecc;align=center;verticalAlign=middle;whiteSpace=wrap;rounded=0;fontSize=14;" vertex="1" parent="1">
          <mxGeometry x="50" y="340" width="60" height="30" as="geometry" />
        </mxCell>
        <mxCell id="ZmWr9eJU89eHi5DbGtIF-50" value="$$P_{ref}$$" style="text;html=1;strokeColor=#82b366;fillColor=#d5e8d4;align=center;verticalAlign=middle;whiteSpace=wrap;rounded=0;fontSize=14;" vertex="1" parent="1">
          <mxGeometry x="50" y="380" width="60" height="30" as="geometry" />
        </mxCell>
        <mxCell id="ZmWr9eJU89eHi5DbGtIF-51" value="&lt;font style=&quot;font-size: 14px;&quot;&gt;V cut-out&lt;/font&gt;" style="text;html=1;strokeColor=none;fillColor=none;align=center;verticalAlign=middle;whiteSpace=wrap;rounded=0;fontSize=13;" vertex="1" parent="1">
          <mxGeometry x="640" y="441" width="60" height="30" as="geometry" />
        </mxCell>
        <mxCell id="ZmWr9eJU89eHi5DbGtIF-52" value="" style="endArrow=classic;startArrow=classic;html=1;rounded=0;strokeWidth=3;fontSize=14;opacity=70;" edge="1" parent="1">
          <mxGeometry width="50" height="50" relative="1" as="geometry">
            <mxPoint x="160" y="140" as="sourcePoint" />
            <mxPoint x="520" y="140" as="targetPoint" />
          </mxGeometry>
        </mxCell>
        <mxCell id="ZmWr9eJU89eHi5DbGtIF-54" value="PLC" style="edgeLabel;html=1;align=center;verticalAlign=middle;resizable=0;points=[];fontSize=14;" vertex="1" connectable="0" parent="ZmWr9eJU89eHi5DbGtIF-52">
          <mxGeometry x="-0.1123" relative="1" as="geometry">
            <mxPoint x="20" as="offset" />
          </mxGeometry>
        </mxCell>
        <mxCell id="ZmWr9eJU89eHi5DbGtIF-53" value="" style="endArrow=classic;startArrow=classic;html=1;rounded=0;strokeWidth=3;fontSize=14;opacity=70;" edge="1" parent="1">
          <mxGeometry width="50" height="50" relative="1" as="geometry">
            <mxPoint x="520" y="140" as="sourcePoint" />
            <mxPoint x="680" y="140" as="targetPoint" />
            <Array as="points">
              <mxPoint x="600" y="140" />
            </Array>
          </mxGeometry>
        </mxCell>
        <mxCell id="ZmWr9eJU89eHi5DbGtIF-55" value="FLC" style="edgeLabel;html=1;align=center;verticalAlign=middle;resizable=0;points=[];fontSize=14;" vertex="1" connectable="0" parent="ZmWr9eJU89eHi5DbGtIF-53">
          <mxGeometry x="-0.0801" y="1" relative="1" as="geometry">
            <mxPoint x="6" as="offset" />
          </mxGeometry>
        </mxCell>
        <mxCell id="ZmWr9eJU89eHi5DbGtIF-56" value="$$C_p = C_p^*(\theta^*, \lambda^*) $$" style="text;html=1;strokeColor=none;fillColor=none;align=center;verticalAlign=middle;whiteSpace=wrap;rounded=0;fontSize=14;" vertex="1" parent="1">
          <mxGeometry x="311" y="207" width="60" height="30" as="geometry" />
        </mxCell>
        <mxCell id="ZmWr9eJU89eHi5DbGtIF-61" value="&lt;font style=&quot;font-size: 13px;&quot;&gt;$$ P \propto v_0^3 $$&lt;/font&gt;" style="text;html=1;align=center;verticalAlign=middle;resizable=0;points=[];autosize=1;strokeColor=none;fillColor=none;fontSize=14;" vertex="1" parent="1">
          <mxGeometry x="230" y="180" width="150" height="30" as="geometry" />
        </mxCell>
        <mxCell id="ZmWr9eJU89eHi5DbGtIF-64" value="&lt;font style=&quot;font-size: 13px;&quot;&gt;$$ \omega_g = \underline{\omega}_g $$&lt;/font&gt;" style="text;html=1;align=center;verticalAlign=middle;resizable=0;points=[];autosize=1;strokeColor=none;fillColor=none;fontSize=14;" vertex="1" parent="1">
          <mxGeometry x="65" y="153" width="260" height="30" as="geometry" />
        </mxCell>
        <mxCell id="ZmWr9eJU89eHi5DbGtIF-67" value="&lt;font style=&quot;font-size: 13px;&quot;&gt;$$ \omega_g = \bar{\omega}_g $$&lt;/font&gt;" style="text;html=1;align=center;verticalAlign=middle;resizable=0;points=[];autosize=1;strokeColor=none;fillColor=none;fontSize=14;" vertex="1" parent="1">
          <mxGeometry x="320" y="150" width="220" height="30" as="geometry" />
        </mxCell>
        <mxCell id="ZmWr9eJU89eHi5DbGtIF-68" value="&lt;font style=&quot;font-size: 13px;&quot;&gt;$$ \theta_{ref} = \theta^*(\lambda) $$&lt;/font&gt;" style="text;html=1;align=center;verticalAlign=middle;resizable=0;points=[];autosize=1;strokeColor=none;fillColor=none;fontSize=14;" vertex="1" parent="1">
          <mxGeometry x="87" y="174" width="240" height="30" as="geometry" />
        </mxCell>
        <mxCell id="ZmWr9eJU89eHi5DbGtIF-69" value="&lt;font style=&quot;font-size: 13px;&quot;&gt;$$ \lambda \neq&amp;nbsp;&lt;br&gt;\lambda^* $$&lt;/font&gt;" style="text;html=1;align=center;verticalAlign=middle;resizable=0;points=[];autosize=1;strokeColor=none;fillColor=none;fontSize=14;" vertex="1" parent="1">
          <mxGeometry x="131" y="189" width="120" height="50" as="geometry" />
        </mxCell>
        <mxCell id="ZmWr9eJU89eHi5DbGtIF-71" value="&lt;font style=&quot;font-size: 13px;&quot;&gt;$$ \lambda \neq&amp;nbsp;&lt;br&gt;\lambda^* $$&lt;/font&gt;" style="text;html=1;align=center;verticalAlign=middle;resizable=0;points=[];autosize=1;strokeColor=none;fillColor=none;fontSize=14;" vertex="1" parent="1">
          <mxGeometry x="369" y="184" width="120" height="50" as="geometry" />
        </mxCell>
        <mxCell id="ZmWr9eJU89eHi5DbGtIF-72" value="&lt;font style=&quot;font-size: 13px;&quot;&gt;$$ \theta_{ref} = \theta^*(\lambda) $$&lt;/font&gt;" style="text;html=1;align=center;verticalAlign=middle;resizable=0;points=[];autosize=1;strokeColor=none;fillColor=none;fontSize=14;" vertex="1" parent="1">
          <mxGeometry x="325" y="172" width="240" height="30" as="geometry" />
        </mxCell>
        <mxCell id="ZmWr9eJU89eHi5DbGtIF-74" value="&lt;font style=&quot;font-size: 13px;&quot;&gt;$$ P_{ref} = PI({\omega}_g) $$&lt;/font&gt;" style="text;html=1;align=center;verticalAlign=middle;resizable=0;points=[];autosize=1;strokeColor=none;fillColor=none;fontSize=14;" vertex="1" parent="1">
          <mxGeometry x="241" y="100" width="200" height="30" as="geometry" />
        </mxCell>
        <mxCell id="ZmWr9eJU89eHi5DbGtIF-75" value="&lt;font style=&quot;font-size: 13px;&quot;&gt;$$ \theta_{ref} = PI({\omega}_g) $$&lt;/font&gt;" style="text;html=1;align=center;verticalAlign=middle;resizable=0;points=[];autosize=1;strokeColor=none;fillColor=none;fontSize=14;" vertex="1" parent="1">
          <mxGeometry x="485" y="100" width="230" height="30" as="geometry" />
        </mxCell>
        <mxCell id="ZmWr9eJU89eHi5DbGtIF-77" value="&lt;font style=&quot;font-size: 14px;&quot;&gt;V nominal&lt;/font&gt;" style="text;html=1;strokeColor=none;fillColor=none;align=center;verticalAlign=middle;whiteSpace=wrap;rounded=0;fontSize=13;" vertex="1" parent="1">
          <mxGeometry x="485" y="441" width="71" height="30" as="geometry" />
        </mxCell>
        <mxCell id="ZmWr9eJU89eHi5DbGtIF-78" value="Region 1" style="text;html=1;strokeColor=none;fillColor=none;align=center;verticalAlign=middle;whiteSpace=wrap;rounded=0;fontSize=13;fontStyle=1" vertex="1" parent="1">
          <mxGeometry x="191" y="411" width="60" height="30" as="geometry" />
        </mxCell>
        <mxCell id="ZmWr9eJU89eHi5DbGtIF-79" value="Region 2" style="text;html=1;strokeColor=none;fillColor=none;align=center;verticalAlign=middle;whiteSpace=wrap;rounded=0;fontSize=13;fontStyle=1" vertex="1" parent="1">
          <mxGeometry x="309" y="410" width="60" height="30" as="geometry" />
        </mxCell>
        <mxCell id="ZmWr9eJU89eHi5DbGtIF-80" value="Region 3" style="text;html=1;strokeColor=none;fillColor=none;align=center;verticalAlign=middle;whiteSpace=wrap;rounded=0;fontSize=13;fontStyle=1" vertex="1" parent="1">
          <mxGeometry x="429" y="410" width="60" height="30" as="geometry" />
        </mxCell>
        <mxCell id="ZmWr9eJU89eHi5DbGtIF-81" value="Region 4" style="text;html=1;strokeColor=none;fillColor=none;align=center;verticalAlign=middle;whiteSpace=wrap;rounded=0;fontSize=13;fontStyle=1" vertex="1" parent="1">
          <mxGeometry x="570" y="410" width="60" height="30" as="geometry" />
        </mxCell>
      </root>
    </mxGraphModel>
  </diagram>
</mxfile>
